<?xml version="1.0" encoding="UTF-8"?>
<svg id="Capa_1" data-name="Capa 1" xmlns="http://www.w3.org/2000/svg" viewBox="0 0 1299.34 464.44">
  <g>
    <path d="M1175.07,32.6l-.18,87.78h96.99c4.39,0,7.96,3.55,7.98,7.95l.13,28.83c.02,4.42-3.56,8.02-7.98,8.02h-96.21c-.09,79.06,.23,137.83-.46,164.52-.16,6.15-.26,18.89,7.77,29.05,5.59,7.07,14.46,11.52,27.46,14.51,15.96,3.68,34.19,4.48,61.14-5.63,3.69-1.39,7.85,.07,9.79,3.5,5.52,9.75,11.08,19.59,16.82,29.73,2.25,3.97,.7,8.98-3.34,11.08-13.41,6.98-27.41,11.05-42.14,12.75-34.18,3.94-67,.43-95.39-21.16-11.46-8.72-20.04-19.15-25.47-31.15-6.44-14.24-6.73-27.04-6.8-32.64-.35-27.26-.78-145.13-.15-307.17,.02-4.39,3.59-7.96,7.98-7.96h34.1c4.41,0,7.99,3.58,7.98,8Z"/>
    <rect x="1030.1" y="120.38" width="49.65" height="304.7" rx="10.41" ry="10.41"/>
    <rect x="1030.09" y="24.69" width="49.83" height="49.99" rx="10.5" ry="10.5"/>
    <path d="M942.29,126.95l-74.13,221.3c-24.17-70.95-48.34-141.89-72.52-212.84-3.06-8.99-11.5-15.03-20.99-15.03h-20.69c-9.53,0-18,6.09-21.03,15.13l-71.26,212.73c-25.12-73.74-50.25-147.48-75.37-221.22-1.35-3.97-5.09-6.65-9.29-6.65h-30.21c-6.67,0-11.4,6.53-9.32,12.88,47.35,144.72,82.23,249.09,88.71,267.27,1.28,3.6,4.56,12.39,12.9,18.51,6.55,4.81,14.86,7.07,24.51,6.71,5.18-.2,9.93-1.36,14.22-3.49,12.94-6.42,18.38-20.56,20.73-26.99,7.59-20.76,33.02-95.59,65.69-198.17,36.1,109.37,63.08,188.88,68.57,204.26,1.17,3.28,4.07,11.1,11.46,16.97,4.94,3.92,11.09,6.39,18.39,7.25,15.58,1.83,27.94-3.94,36.09-17.28,5.37-8.78,7.4-16.66,7.74-18.19,3.27-14.67,36.5-114.77,84.52-257.02,2.11-6.24-2.53-12.72-9.12-12.72h-30.46c-4.14,0-7.81,2.65-9.13,6.57Z"/>
  </g>
  <path d="M218.57,38.16c10.93,0,19.8,8.86,19.8,19.8v76.65c0,10.93-8.86,19.8-19.8,19.8s-19.8-8.86-19.8-19.8V57.96c0-10.93,8.86-19.8,19.8-19.8m0-35.72c-30.61,0-55.52,24.91-55.52,55.52v76.65c0,30.61,24.91,55.52,55.52,55.52s55.52-24.91,55.52-55.52V57.96c0-30.61-24.91-55.52-55.52-55.52h0Z"/>
  <path d="M218.57,462c-118.77,0-215.04-93.36-218.47-212.08C-1.91,180.65,28.3,115.68,82.26,72.59l10.18-8.13c4.93-3.94,12.11-3.13,16.05,1.8l16.25,20.35c3.94,4.93,3.13,12.11-1.8,16.05l-10.18,8.13c-42.56,33.99-66.09,85.49-63.72,140.21,3.85,88.71,76.66,159.98,165.43,162.08,95.41,2.25,173.75-74.71,173.75-169.62,0-51.89-23.29-100.24-63.88-132.66l-10.18-8.13c-4.93-3.94-5.73-11.12-1.8-16.05l16.25-20.35c3.94-4.93,11.12-5.73,16.05-1.8l10.18,8.13c52.28,41.75,82.26,104.03,82.26,170.86,0,120.51-98.04,218.55-218.54,218.55Z"/>
</svg>